<svg width="588" height="578" viewBox="0 0 588 578" fill="none" xmlns="http://www.w3.org/2000/svg">
<rect width="128" height="329" transform="translate(357.692 453.263) rotate(180)" fill="black"/>
<rect x="356.192" y="451.763" width="125" height="326" transform="rotate(180 356.192 451.763)" fill="#1C4F0D" stroke="black" stroke-width="3"/>
<circle cx="293.692" cy="176.263" r="33.5" transform="rotate(180 293.692 176.263)" fill="black" stroke="black" stroke-width="3"/>
<path d="M339.118 296.583L344.504 296.583L344.504 314.037L338.879 314.037C337.186 314.037 335.737 313.688 334.533 312.989C333.328 312.296 332.405 311.299 331.763 309.998C331.121 308.702 330.8 307.151 330.8 305.344C330.8 303.526 331.124 301.961 331.771 300.648C332.419 299.341 333.362 298.336 334.601 297.631C335.84 296.932 337.345 296.583 339.118 296.583ZM342.391 298.458L339.254 298.458C337.811 298.458 336.615 298.736 335.666 299.293C334.717 299.85 334.01 300.643 333.544 301.671C333.078 302.699 332.845 303.924 332.845 305.344C332.845 306.753 333.075 307.966 333.536 308.983C333.996 310.006 334.683 310.79 335.598 311.336C336.513 311.887 337.652 312.162 339.016 312.162L342.391 312.162L342.391 298.458ZM327.254 296.583L327.254 314.037L316.72 314.037L316.72 312.162L325.141 312.162L325.141 306.265L317.266 306.265L317.266 304.39L325.141 304.39L325.141 298.458L316.584 298.458L316.584 296.583L327.254 296.583ZM303.365 309.674C303.467 310.537 303.882 311.208 304.609 311.685C305.337 312.162 306.229 312.401 307.286 312.401C308.058 312.401 308.734 312.276 309.314 312.026C309.888 311.776 310.337 311.432 310.661 310.995C310.979 310.557 311.138 310.06 311.138 309.503C311.138 309.037 311.027 308.637 310.805 308.302C310.578 307.972 310.288 307.697 309.936 307.475C309.584 307.259 309.215 307.08 308.828 306.938C308.442 306.802 308.087 306.691 307.763 306.606L305.99 306.128C305.536 306.009 305.03 305.844 304.473 305.634C303.911 305.424 303.374 305.137 302.862 304.773C302.345 304.415 301.919 303.955 301.584 303.393C301.249 302.83 301.081 302.14 301.081 301.322C301.081 300.378 301.328 299.526 301.822 298.765C302.311 298.003 303.027 297.398 303.97 296.949C304.908 296.501 306.047 296.276 307.388 296.276C308.638 296.276 309.72 296.478 310.635 296.881C311.544 297.285 312.26 297.847 312.783 298.569C313.3 299.29 313.592 300.128 313.661 301.083L311.479 301.083C311.422 300.424 311.2 299.878 310.814 299.447C310.422 299.02 309.928 298.702 309.331 298.492C308.729 298.287 308.081 298.185 307.388 298.185C306.581 298.185 305.857 298.316 305.215 298.577C304.572 298.844 304.064 299.214 303.689 299.685C303.314 300.162 303.126 300.719 303.126 301.356C303.126 301.935 303.288 302.407 303.612 302.77C303.936 303.134 304.362 303.429 304.891 303.657C305.419 303.884 305.99 304.083 306.604 304.253L308.751 304.867C310.115 305.259 311.195 305.819 311.99 306.546C312.786 307.273 313.183 308.225 313.183 309.401C313.183 310.378 312.919 311.231 312.391 311.958C311.857 312.691 311.141 313.259 310.243 313.662C309.34 314.072 308.331 314.276 307.217 314.276C306.092 314.276 305.092 314.074 304.217 313.671C303.342 313.273 302.649 312.728 302.138 312.035C301.621 311.341 301.348 310.554 301.32 309.674L303.365 309.674ZM298.56 312.162L298.56 314.037L285.469 314.037L285.469 312.162L290.958 312.162L290.958 296.583L293.072 296.583L293.072 312.162L298.56 312.162ZM280.094 314.037L280.094 296.583L282.207 296.583L282.207 314.037L280.094 314.037ZM262.015 314.037L262.015 296.583L264.06 296.583L273.572 310.287L273.742 310.287L273.742 296.583L275.856 296.583L275.856 314.037L273.81 314.037L264.265 300.299L264.094 300.299L264.094 314.037L262.015 314.037ZM243.058 305.31C243.058 303.469 243.391 301.878 244.055 300.537C244.72 299.197 245.632 298.162 246.791 297.435C247.95 296.708 249.274 296.344 250.763 296.344C252.251 296.344 253.575 296.708 254.734 297.435C255.893 298.162 256.805 299.197 257.47 300.537C258.135 301.878 258.467 303.469 258.467 305.31C258.467 307.151 258.135 308.742 257.47 310.083C256.805 311.424 255.893 312.458 254.734 313.185C253.575 313.912 252.251 314.276 250.763 314.276C249.274 314.276 247.95 313.912 246.791 313.185C245.632 312.458 244.72 311.424 244.055 310.083C243.391 308.742 243.058 307.151 243.058 305.31ZM245.104 305.31C245.104 306.822 245.357 308.097 245.862 309.137C246.362 310.177 247.041 310.964 247.899 311.498C248.751 312.032 249.706 312.299 250.763 312.299C251.82 312.299 252.777 312.032 253.635 311.498C254.487 310.964 255.166 310.177 255.672 309.137C256.172 308.097 256.422 306.822 256.422 305.31C256.422 303.799 256.172 302.523 255.672 301.483C255.166 300.444 254.487 299.657 253.635 299.123C252.777 298.589 251.82 298.322 250.763 298.322C249.706 298.322 248.751 298.589 247.899 299.123C247.041 299.657 246.362 300.444 245.862 301.483C245.357 302.523 245.104 303.799 245.104 305.31Z" fill="black"/>
<path d="M344.504 296.583L345.004 296.583L345.004 296.083L344.504 296.083L344.504 296.583ZM344.504 314.037L344.504 314.537L345.004 314.537L345.004 314.037L344.504 314.037ZM334.533 312.989L334.784 312.557L334.782 312.556L334.533 312.989ZM331.763 309.998L332.211 309.776L332.211 309.776L331.763 309.998ZM331.771 300.648L331.323 300.426L331.323 300.427L331.771 300.648ZM334.601 297.631L334.355 297.196L334.354 297.197L334.601 297.631ZM342.391 298.458L342.891 298.458L342.891 297.958L342.391 297.958L342.391 298.458ZM333.536 308.983L333.991 308.778L333.991 308.777L333.536 308.983ZM335.598 311.336L335.856 310.907L335.854 310.906L335.598 311.336ZM342.391 312.162L342.391 312.662L342.891 312.662L342.891 312.162L342.391 312.162ZM339.118 296.583L339.118 297.083L344.504 297.083L344.504 296.583L344.504 296.083L339.118 296.083L339.118 296.583ZM344.504 296.583L344.004 296.583L344.004 314.037L344.504 314.037L345.004 314.037L345.004 296.583L344.504 296.583ZM344.504 314.037L344.504 313.537L338.879 313.537L338.879 314.037L338.879 314.537L344.504 314.537L344.504 314.037ZM338.879 314.037L338.879 313.537C337.255 313.537 335.897 313.203 334.784 312.557L334.533 312.989L334.282 313.422C335.577 314.173 337.117 314.537 338.879 314.537L338.879 314.037ZM334.533 312.989L334.782 312.556C333.667 311.914 332.811 310.993 332.211 309.776L331.763 309.998L331.314 310.219C331.998 311.605 332.989 312.678 334.283 313.423L334.533 312.989ZM331.763 309.998L332.211 309.776C331.61 308.564 331.3 307.093 331.3 305.344L330.8 305.344L330.3 305.344C330.3 307.209 330.631 308.84 331.315 310.22L331.763 309.998ZM330.8 305.344L331.3 305.344C331.3 303.585 331.613 302.099 332.22 300.87L331.771 300.648L331.323 300.427C330.634 301.823 330.3 303.468 330.3 305.344L330.8 305.344ZM331.771 300.648L332.219 300.87C332.824 299.651 333.698 298.72 334.848 298.066L334.601 297.631L334.354 297.197C333.026 297.952 332.014 299.032 331.323 300.426L331.771 300.648ZM334.601 297.631L334.847 298.067C335.994 297.419 337.41 297.083 339.118 297.083L339.118 296.583L339.118 296.083C337.28 296.083 335.685 296.445 334.355 297.196L334.601 297.631ZM342.391 298.458L342.391 297.958L339.254 297.958L339.254 298.458L339.254 298.958L342.391 298.958L342.391 298.458ZM339.254 298.458L339.254 297.958C337.749 297.958 336.459 298.248 335.413 298.862L335.666 299.293L335.919 299.724C336.771 299.225 337.873 298.958 339.254 298.958L339.254 298.458ZM335.666 299.293L335.413 298.862C334.373 299.472 333.596 300.345 333.089 301.465L333.544 301.671L333.999 301.877C334.424 300.94 335.062 300.227 335.919 299.724L335.666 299.293ZM333.544 301.671L333.089 301.465C332.587 302.572 332.345 303.87 332.345 305.344L332.845 305.344L333.345 305.344C333.345 303.977 333.569 302.826 333.999 301.877L333.544 301.671ZM332.845 305.344L332.345 305.344C332.345 306.806 332.584 308.093 333.08 309.19L333.536 308.983L333.991 308.777C333.567 307.84 333.345 306.7 333.345 305.344L332.845 305.344ZM333.536 308.983L333.08 309.189C333.579 310.3 334.334 311.164 335.342 311.765L335.598 311.336L335.854 310.906C335.032 310.416 334.412 309.713 333.991 308.778L333.536 308.983ZM335.598 311.336L335.34 311.764C336.351 312.373 337.586 312.662 339.016 312.662L339.016 312.162L339.016 311.662C337.718 311.662 336.674 311.4 335.856 310.907L335.598 311.336ZM339.016 312.162L339.016 312.662L342.391 312.662L342.391 312.162L342.391 311.662L339.016 311.662L339.016 312.162ZM342.391 312.162L342.891 312.162L342.891 298.458L342.391 298.458L341.891 298.458L341.891 312.162L342.391 312.162ZM327.254 296.583L327.754 296.583L327.754 296.083L327.254 296.083L327.254 296.583ZM327.254 314.037L327.254 314.537L327.754 314.537L327.754 314.037L327.254 314.037ZM316.72 314.037L316.22 314.037L316.22 314.537L316.72 314.537L316.72 314.037ZM316.72 312.162L316.72 311.662L316.22 311.662L316.22 312.162L316.72 312.162ZM325.141 312.162L325.141 312.662L325.641 312.662L325.641 312.162L325.141 312.162ZM325.141 306.265L325.641 306.265L325.641 305.765L325.141 305.765L325.141 306.265ZM317.266 306.265L316.766 306.265L316.766 306.765L317.266 306.765L317.266 306.265ZM317.266 304.39L317.266 303.89L316.766 303.89L316.766 304.39L317.266 304.39ZM325.141 304.39L325.141 304.89L325.641 304.89L325.641 304.39L325.141 304.39ZM325.141 298.458L325.641 298.458L325.641 297.958L325.141 297.958L325.141 298.458ZM316.584 298.458L316.084 298.458L316.084 298.958L316.584 298.958L316.584 298.458ZM316.584 296.583L316.584 296.083L316.084 296.083L316.084 296.583L316.584 296.583ZM327.254 296.583L326.754 296.583L326.754 314.037L327.254 314.037L327.754 314.037L327.754 296.583L327.254 296.583ZM327.254 314.037L327.254 313.537L316.72 313.537L316.72 314.037L316.72 314.537L327.254 314.537L327.254 314.037ZM316.72 314.037L317.22 314.037L317.22 312.162L316.72 312.162L316.22 312.162L316.22 314.037L316.72 314.037ZM316.72 312.162L316.72 312.662L325.141 312.662L325.141 312.162L325.141 311.662L316.72 311.662L316.72 312.162ZM325.141 312.162L325.641 312.162L325.641 306.265L325.141 306.265L324.641 306.265L324.641 312.162L325.141 312.162ZM325.141 306.265L325.141 305.765L317.266 305.765L317.266 306.265L317.266 306.765L325.141 306.765L325.141 306.265ZM317.266 306.265L317.766 306.265L317.766 304.39L317.266 304.39L316.766 304.39L316.766 306.265L317.266 306.265ZM317.266 304.39L317.266 304.89L325.141 304.89L325.141 304.39L325.141 303.89L317.266 303.89L317.266 304.39ZM325.141 304.39L325.641 304.39L325.641 298.458L325.141 298.458L324.641 298.458L324.641 304.39L325.141 304.39ZM325.141 298.458L325.141 297.958L316.584 297.958L316.584 298.458L316.584 298.958L325.141 298.958L325.141 298.458ZM316.584 298.458L317.084 298.458L317.084 296.583L316.584 296.583L316.084 296.583L316.084 298.458L316.584 298.458ZM316.584 296.583L316.584 297.083L327.254 297.083L327.254 296.583L327.254 296.083L316.584 296.083L316.584 296.583ZM303.365 309.674L303.862 309.615L303.809 309.174L303.365 309.174L303.365 309.674ZM304.609 311.685L304.884 311.267V311.267L304.609 311.685ZM309.314 312.026L309.512 312.485L309.514 312.484L309.314 312.026ZM310.661 310.995L311.062 311.292L311.065 311.289L310.661 310.995ZM310.805 308.302L311.223 308.026L311.217 308.018L310.805 308.302ZM309.936 307.475L310.202 307.052L310.197 307.049L309.936 307.475ZM308.828 306.938L309.001 306.469L308.995 306.467L308.828 306.938ZM307.763 306.606L307.633 307.088L307.636 307.089L307.763 306.606ZM305.99 306.128L306.12 305.646L306.117 305.645L305.99 306.128ZM304.473 305.634L304.65 305.166L304.648 305.166L304.473 305.634ZM302.862 304.773L303.152 304.366L303.147 304.362L302.862 304.773ZM301.584 303.393L301.154 303.649V303.649L301.584 303.393ZM301.822 298.765L302.242 299.037L302.243 299.035L301.822 298.765ZM303.97 296.949L304.185 297.401L304.186 297.4L303.97 296.949ZM310.635 296.881L310.838 296.424L310.837 296.424L310.635 296.881ZM312.783 298.569L313.189 298.277L313.188 298.275L312.783 298.569ZM313.661 301.083L313.661 301.583L314.198 301.583L314.159 301.047L313.661 301.083ZM311.479 301.083L310.981 301.126L311.02 301.583L311.479 301.583L311.479 301.083ZM310.814 299.447L311.187 299.113L311.182 299.108L310.814 299.447ZM309.331 298.492L309.497 298.02L309.492 298.019L309.331 298.492ZM305.215 298.577L305.026 298.114L305.022 298.116L305.215 298.577ZM303.689 299.685L303.298 299.374L303.296 299.376L303.689 299.685ZM303.612 302.77L303.239 303.103V303.103L303.612 302.77ZM304.891 303.657L305.088 303.197V303.197L304.891 303.657ZM306.604 304.253L306.741 303.773L306.738 303.772L306.604 304.253ZM308.751 304.867L308.89 304.386L308.889 304.386L308.751 304.867ZM311.99 306.546L312.327 306.177V306.177L311.99 306.546ZM312.391 311.958L312.795 312.252L312.795 312.252L312.391 311.958ZM310.243 313.662L310.038 313.206L310.037 313.207L310.243 313.662ZM304.217 313.671L304.427 313.217L304.424 313.216L304.217 313.671ZM302.138 312.035L302.54 311.738L302.539 311.736L302.138 312.035ZM301.32 309.674L301.32 309.174L300.803 309.174L300.82 309.69L301.32 309.674ZM303.365 309.674L302.869 309.733C302.988 310.743 303.484 311.545 304.335 312.103L304.609 311.685L304.884 311.267C304.28 310.871 303.947 310.332 303.862 309.615L303.365 309.674ZM304.609 311.685L304.335 312.103C305.16 312.644 306.152 312.901 307.286 312.901L307.286 312.401L307.286 311.901C306.305 311.901 305.513 311.68 304.884 311.267L304.609 311.685ZM307.286 312.401L307.286 312.901C308.111 312.901 308.858 312.767 309.512 312.485L309.314 312.026L309.116 311.567C308.611 311.785 308.005 311.901 307.286 311.901L307.286 312.401ZM309.314 312.026L309.514 312.484C310.156 312.205 310.679 311.81 311.062 311.292L310.661 310.995L310.259 310.697C309.994 311.054 309.62 311.347 309.114 311.568L309.314 312.026ZM310.661 310.995L311.065 311.289C311.447 310.763 311.638 310.163 311.638 309.503L311.138 309.503L310.638 309.503C310.638 309.958 310.51 310.351 310.256 310.701L310.661 310.995ZM311.138 309.503L311.638 309.503C311.638 308.955 311.506 308.455 311.223 308.026L310.805 308.302L310.388 308.577C310.548 308.818 310.638 309.119 310.638 309.503L311.138 309.503ZM310.805 308.302L311.217 308.018C310.95 307.63 310.61 307.308 310.202 307.052L309.936 307.475L309.67 307.898C309.967 308.085 310.207 308.314 310.394 308.586L310.805 308.302ZM309.936 307.475L310.197 307.049C309.817 306.816 309.418 306.622 309.001 306.469L308.828 306.938L308.656 307.407C309.011 307.538 309.351 307.702 309.675 307.901L309.936 307.475ZM308.828 306.938L308.995 306.467C308.598 306.327 308.23 306.211 307.89 306.122L307.763 306.606L307.636 307.089C307.944 307.17 308.286 307.277 308.662 307.409L308.828 306.938ZM307.763 306.606L307.893 306.123L306.12 305.646L305.99 306.128L305.86 306.611L307.633 307.088L307.763 306.606ZM305.99 306.128L306.117 305.645C305.683 305.531 305.194 305.372 304.65 305.166L304.473 305.634L304.296 306.102C304.865 306.317 305.388 306.487 305.863 306.612L305.99 306.128ZM304.473 305.634L304.648 305.166C304.128 304.971 303.63 304.705 303.152 304.366L302.862 304.773L302.572 305.181C303.118 305.568 303.693 305.876 304.298 306.102L304.473 305.634ZM302.862 304.773L303.147 304.362C302.691 304.047 302.313 303.64 302.013 303.137L301.584 303.393L301.154 303.649C301.525 304.27 301.999 304.784 302.578 305.184L302.862 304.773ZM301.584 303.393L302.013 303.137C301.734 302.669 301.581 302.072 301.581 301.322L301.081 301.322L300.581 301.322C300.581 302.208 300.763 302.991 301.154 303.649L301.584 303.393ZM301.081 301.322L301.581 301.322C301.581 300.471 301.802 299.714 302.242 299.037L301.822 298.765L301.403 298.492C300.854 299.338 300.581 300.286 300.581 301.322L301.081 301.322ZM301.822 298.765L302.243 299.035C302.674 298.363 303.313 297.816 304.185 297.401L303.97 296.949L303.755 296.498C302.741 296.981 301.948 297.643 301.402 298.495L301.822 298.765ZM303.97 296.949L304.186 297.4C305.04 296.992 306.101 296.776 307.388 296.776L307.388 296.276L307.388 295.776C305.993 295.776 304.776 296.009 303.754 296.498L303.97 296.949ZM307.388 296.276L307.388 296.776C308.585 296.776 309.596 296.969 310.433 297.339L310.635 296.881L310.837 296.424C309.845 295.986 308.69 295.776 307.388 295.776L307.388 296.276ZM310.635 296.881L310.432 297.338C311.27 297.71 311.913 298.22 312.378 298.862L312.783 298.569L313.188 298.275C312.607 297.474 311.818 296.859 310.838 296.424L310.635 296.881ZM312.783 298.569L312.376 298.86C312.835 299.501 313.1 300.249 313.162 301.119L313.661 301.083L314.159 301.047C314.085 300.008 313.764 299.08 313.189 298.277L312.783 298.569ZM313.661 301.083L313.661 300.583L311.479 300.583L311.479 301.083L311.479 301.583L313.661 301.583L313.661 301.083ZM311.479 301.083L311.977 301.04C311.912 300.289 311.655 299.637 311.187 299.113L310.814 299.447L310.441 299.78C310.746 300.12 310.932 300.559 310.981 301.126L311.479 301.083ZM310.814 299.447L311.182 299.108C310.729 298.616 310.164 298.255 309.497 298.02L309.331 298.492L309.165 298.964C309.692 299.149 310.114 299.425 310.446 299.785L310.814 299.447ZM309.331 298.492L309.492 298.019C308.833 297.795 308.131 297.685 307.388 297.685L307.388 298.185L307.388 298.685C308.031 298.685 308.624 298.78 309.17 298.965L309.331 298.492ZM307.388 298.185L307.388 297.685C306.527 297.685 305.737 297.825 305.026 298.114L305.215 298.577L305.403 299.04C305.976 298.807 306.635 298.685 307.388 298.685L307.388 298.185ZM305.215 298.577L305.022 298.116C304.314 298.41 303.733 298.827 303.298 299.374L303.689 299.685L304.08 299.996C304.395 299.601 304.83 299.278 305.407 299.039L305.215 298.577ZM303.689 299.685L303.296 299.376C302.848 299.946 302.626 300.613 302.626 301.356L303.126 301.356L303.626 301.356C303.626 300.825 303.78 300.379 304.082 299.994L303.689 299.685ZM303.126 301.356L302.626 301.356C302.626 302.033 302.818 302.631 303.239 303.103L303.612 302.77L303.986 302.438C303.758 302.183 303.626 301.837 303.626 301.356L303.126 301.356ZM303.612 302.77L303.239 303.103C303.619 303.53 304.11 303.865 304.693 304.116L304.891 303.657L305.088 303.197C304.615 302.994 304.253 302.738 303.986 302.438L303.612 302.77ZM304.891 303.657L304.693 304.116C305.244 304.353 305.837 304.559 306.47 304.735L306.604 304.253L306.738 303.772C306.143 303.607 305.594 303.415 305.088 303.197L304.891 303.657ZM306.604 304.253L306.466 304.734L308.614 305.348L308.751 304.867L308.889 304.386L306.741 303.773L306.604 304.253ZM308.751 304.867L308.613 305.348C309.925 305.725 310.929 306.254 311.653 306.915L311.99 306.546L312.327 306.177C311.46 305.384 310.305 304.793 308.89 304.386L308.751 304.867ZM311.99 306.546L311.653 306.915C312.334 307.538 312.683 308.351 312.683 309.401L313.183 309.401L313.683 309.401C313.683 308.099 313.237 307.008 312.327 306.177L311.99 306.546ZM313.183 309.401L312.683 309.401C312.683 310.282 312.447 311.03 311.986 311.664L312.391 311.958L312.795 312.252C313.391 311.432 313.683 310.474 313.683 309.401L313.183 309.401ZM312.391 311.958L311.987 311.663C311.508 312.32 310.863 312.835 310.038 313.206L310.243 313.662L310.448 314.119C311.418 313.683 312.205 313.061 312.795 312.252L312.391 311.958ZM310.243 313.662L310.037 313.207C309.206 313.583 308.269 313.776 307.217 313.776L307.217 314.276L307.217 314.776C308.393 314.776 309.473 314.56 310.449 314.118L310.243 313.662ZM307.217 314.276L307.217 313.776C306.153 313.776 305.226 313.585 304.427 313.217L304.217 313.671L304.008 314.125C304.959 314.563 306.032 314.776 307.217 314.776L307.217 314.276ZM304.217 313.671L304.424 313.216C303.618 312.849 302.995 312.355 302.54 311.738L302.138 312.035L301.735 312.331C302.303 313.101 303.067 313.697 304.01 314.126L304.217 313.671ZM302.138 312.035L302.539 311.736C302.084 311.126 301.845 310.438 301.819 309.658L301.32 309.674L300.82 309.69C300.852 310.671 301.158 311.557 301.737 312.334L302.138 312.035ZM301.32 309.674L301.32 310.174L303.365 310.174L303.365 309.674L303.365 309.174L301.32 309.174L301.32 309.674ZM298.56 312.162L299.06 312.162L299.06 311.662L298.56 311.662L298.56 312.162ZM298.56 314.037L298.56 314.537L299.06 314.537L299.06 314.037L298.56 314.037ZM285.469 314.037L284.969 314.037L284.969 314.537L285.469 314.537L285.469 314.037ZM285.469 312.162L285.469 311.662L284.969 311.662L284.969 312.162L285.469 312.162ZM290.958 312.162L290.958 312.662L291.458 312.662L291.458 312.162L290.958 312.162ZM290.958 296.583L290.958 296.083L290.458 296.083L290.458 296.583L290.958 296.583ZM293.072 296.583L293.572 296.583L293.572 296.083L293.072 296.083L293.072 296.583ZM293.072 312.162L292.572 312.162L292.572 312.662L293.072 312.662L293.072 312.162ZM298.56 312.162L298.06 312.162L298.06 314.037L298.56 314.037L299.06 314.037L299.06 312.162L298.56 312.162ZM298.56 314.037L298.56 313.537L285.469 313.537L285.469 314.037L285.469 314.537L298.56 314.537L298.56 314.037ZM285.469 314.037L285.969 314.037L285.969 312.162L285.469 312.162L284.969 312.162L284.969 314.037L285.469 314.037ZM285.469 312.162L285.469 312.662L290.958 312.662L290.958 312.162L290.958 311.662L285.469 311.662L285.469 312.162ZM290.958 312.162L291.458 312.162L291.458 296.583L290.958 296.583L290.458 296.583L290.458 312.162L290.958 312.162ZM290.958 296.583L290.958 297.083L293.072 297.083L293.072 296.583L293.072 296.083L290.958 296.083L290.958 296.583ZM293.072 296.583L292.572 296.583L292.572 312.162L293.072 312.162L293.572 312.162L293.572 296.583L293.072 296.583ZM293.072 312.162L293.072 312.662L298.56 312.662L298.56 312.162L298.56 311.662L293.072 311.662L293.072 312.162ZM280.094 314.037L279.594 314.037L279.594 314.537L280.094 314.537L280.094 314.037ZM280.094 296.583L280.094 296.083L279.594 296.083L279.594 296.583L280.094 296.583ZM282.207 296.583L282.707 296.583L282.707 296.083L282.207 296.083L282.207 296.583ZM282.207 314.037L282.207 314.537L282.707 314.537L282.707 314.037L282.207 314.037ZM280.094 314.037L280.594 314.037L280.594 296.583L280.094 296.583L279.594 296.583L279.594 314.037L280.094 314.037ZM280.094 296.583L280.094 297.083L282.207 297.083L282.207 296.583L282.207 296.083L280.094 296.083L280.094 296.583ZM282.207 296.583L281.707 296.583L281.707 314.037L282.207 314.037L282.707 314.037L282.707 296.583L282.207 296.583ZM282.207 314.037L282.207 313.537L280.094 313.537L280.094 314.037L280.094 314.537L282.207 314.537L282.207 314.037ZM262.015 314.037L261.515 314.037L261.515 314.537L262.015 314.537L262.015 314.037ZM262.015 296.583L262.015 296.083L261.515 296.083L261.515 296.583L262.015 296.583ZM264.06 296.583L264.471 296.298L264.322 296.083L264.06 296.083L264.06 296.583ZM273.572 310.287L273.161 310.573L273.31 310.787L273.572 310.787L273.572 310.287ZM273.742 310.287L273.742 310.787L274.242 310.787L274.242 310.287L273.742 310.287ZM273.742 296.583L273.742 296.083L273.242 296.083L273.242 296.583L273.742 296.583ZM275.856 296.583L276.356 296.583L276.356 296.083L275.856 296.083L275.856 296.583ZM275.856 314.037L275.856 314.537L276.356 314.537L276.356 314.037L275.856 314.037ZM273.81 314.037L273.4 314.323L273.549 314.537L273.81 314.537L273.81 314.037ZM264.265 300.299L264.676 300.014L264.526 299.799L264.265 299.799L264.265 300.299ZM264.094 300.299L264.094 299.799L263.594 299.799L263.594 300.299L264.094 300.299ZM264.094 314.037L264.094 314.537L264.594 314.537L264.594 314.037L264.094 314.037ZM262.015 314.037L262.515 314.037L262.515 296.583L262.015 296.583L261.515 296.583L261.515 314.037L262.015 314.037ZM262.015 296.583L262.015 297.083L264.06 297.083L264.06 296.583L264.06 296.083L262.015 296.083L262.015 296.583ZM264.06 296.583L263.65 296.868L273.161 310.573L273.572 310.287L273.983 310.002L264.471 296.298L264.06 296.583ZM273.572 310.287L273.572 310.787L273.742 310.787L273.742 310.287L273.742 309.787L273.572 309.787L273.572 310.287ZM273.742 310.287L274.242 310.287L274.242 296.583L273.742 296.583L273.242 296.583L273.242 310.287L273.742 310.287ZM273.742 296.583L273.742 297.083L275.856 297.083L275.856 296.583L275.856 296.083L273.742 296.083L273.742 296.583ZM275.856 296.583L275.356 296.583L275.356 314.037L275.856 314.037L276.356 314.037L276.356 296.583L275.856 296.583ZM275.856 314.037L275.856 313.537L273.81 313.537L273.81 314.037L273.81 314.537L275.856 314.537L275.856 314.037ZM273.81 314.037L274.221 313.752L264.676 300.014L264.265 300.299L263.854 300.584L273.4 314.323L273.81 314.037ZM264.265 300.299L264.265 299.799L264.094 299.799L264.094 300.299L264.094 300.799L264.265 300.799L264.265 300.299ZM264.094 300.299L263.594 300.299L263.594 314.037L264.094 314.037L264.594 314.037L264.594 300.299L264.094 300.299ZM264.094 314.037L264.094 313.537L262.015 313.537L262.015 314.037L262.015 314.537L264.094 314.537L264.094 314.037ZM244.055 300.537L244.503 300.76V300.76L244.055 300.537ZM246.791 297.435L246.525 297.012V297.012L246.791 297.435ZM254.734 297.435L255 297.012V297.012L254.734 297.435ZM257.47 300.537L257.022 300.76V300.76L257.47 300.537ZM246.791 313.185L246.525 313.609V313.609L246.791 313.185ZM244.055 310.083L244.503 309.861V309.861L244.055 310.083ZM245.862 309.137L246.313 308.92L246.312 308.918L245.862 309.137ZM247.899 311.498L248.165 311.074L248.163 311.073L247.899 311.498ZM253.635 311.498L253.899 311.922L253.9 311.921L253.635 311.498ZM255.672 309.137L256.122 309.356L256.123 309.354L255.672 309.137ZM255.672 301.483L256.123 301.267L256.122 301.265L255.672 301.483ZM253.635 299.123L253.9 298.699L253.899 298.698L253.635 299.123ZM247.899 299.123L248.163 299.547L248.165 299.546L247.899 299.123ZM245.862 301.483L246.312 301.702L246.313 301.7L245.862 301.483ZM243.058 305.31L243.558 305.31C243.558 303.529 243.88 302.017 244.503 300.76L244.055 300.537L243.607 300.315C242.901 301.739 242.558 303.41 242.558 305.31L243.058 305.31ZM244.055 300.537L244.503 300.76C245.131 299.493 245.983 298.532 247.057 297.859L246.791 297.435L246.525 297.012C245.281 297.792 244.309 298.9 243.607 300.315L244.055 300.537ZM246.791 297.435L247.057 297.859C248.129 297.186 249.36 296.844 250.763 296.844L250.763 296.344L250.763 295.844C249.189 295.844 247.771 296.23 246.525 297.012L246.791 297.435ZM250.763 296.344L250.763 296.844C252.166 296.844 253.396 297.186 254.469 297.859L254.734 297.435L255 297.012C253.754 296.23 252.337 295.844 250.763 295.844L250.763 296.344ZM254.734 297.435L254.469 297.859C255.542 298.532 256.394 299.493 257.022 300.76L257.47 300.537L257.918 300.315C257.216 298.9 256.245 297.792 255 297.012L254.734 297.435ZM257.47 300.537L257.022 300.76C257.646 302.017 257.967 303.529 257.967 305.31L258.467 305.31L258.967 305.31C258.967 303.41 258.624 301.739 257.918 300.315L257.47 300.537ZM258.467 305.31L257.967 305.31C257.967 307.091 257.646 308.603 257.022 309.861L257.47 310.083L257.918 310.305C258.624 308.881 258.967 307.211 258.967 305.31L258.467 305.31ZM257.47 310.083L257.022 309.861C256.394 311.127 255.542 312.088 254.469 312.762L254.734 313.185L255 313.609C256.245 312.828 257.216 311.721 257.918 310.305L257.47 310.083ZM254.734 313.185L254.469 312.762C253.396 313.435 252.166 313.776 250.763 313.776L250.763 314.276L250.763 314.776C252.337 314.776 253.754 314.39 255 313.609L254.734 313.185ZM250.763 314.276L250.763 313.776C249.36 313.776 248.129 313.435 247.057 312.762L246.791 313.185L246.525 313.609C247.771 314.39 249.189 314.776 250.763 314.776L250.763 314.276ZM246.791 313.185L247.057 312.762C245.983 312.088 245.131 311.127 244.503 309.861L244.055 310.083L243.607 310.305C244.309 311.721 245.281 312.828 246.525 313.609L246.791 313.185ZM244.055 310.083L244.503 309.861C243.88 308.603 243.558 307.091 243.558 305.31L243.058 305.31L242.558 305.31C242.558 307.211 242.901 308.881 243.607 310.305L244.055 310.083ZM245.104 305.31L244.604 305.31C244.604 306.875 244.865 308.23 245.413 309.356L245.862 309.137L246.312 308.918C245.848 307.964 245.604 306.768 245.604 305.31L245.104 305.31ZM245.862 309.137L245.412 309.354C245.947 310.466 246.685 311.331 247.635 311.922L247.899 311.498L248.163 311.073C247.397 310.596 246.778 309.887 246.313 308.92L245.862 309.137ZM247.899 311.498L247.634 311.921C248.57 312.508 249.617 312.799 250.763 312.799L250.763 312.299L250.763 311.799C249.795 311.799 248.933 311.556 248.165 311.074L247.899 311.498ZM250.763 312.299L250.763 312.799C251.909 312.799 252.958 312.508 253.899 311.922L253.635 311.498L253.371 311.073C252.596 311.556 251.731 311.799 250.763 311.799L250.763 312.299ZM253.635 311.498L253.9 311.921C254.843 311.33 255.581 310.467 256.122 309.356L255.672 309.137L255.222 308.918C254.751 309.887 254.131 310.597 253.369 311.074L253.635 311.498ZM255.672 309.137L256.123 309.354C256.663 308.229 256.922 306.874 256.922 305.31L256.422 305.31L255.922 305.31C255.922 306.769 255.68 307.966 255.221 308.92L255.672 309.137ZM256.422 305.31L256.922 305.31C256.922 303.746 256.663 302.392 256.123 301.267L255.672 301.483L255.221 301.7C255.68 302.655 255.922 303.852 255.922 305.31L256.422 305.31ZM255.672 301.483L256.122 301.265C255.581 300.154 254.843 299.29 253.9 298.699L253.635 299.123L253.369 299.546C254.131 300.024 254.751 300.734 255.222 301.702L255.672 301.483ZM253.635 299.123L253.899 298.698C252.958 298.112 251.909 297.822 250.763 297.822L250.763 298.322L250.763 298.822C251.731 298.822 252.596 299.065 253.371 299.547L253.635 299.123ZM250.763 298.322L250.763 297.822C249.617 297.822 248.57 298.112 247.634 298.699L247.899 299.123L248.165 299.546C248.933 299.065 249.795 298.822 250.763 298.822L250.763 298.322ZM247.899 299.123L247.635 298.698C246.685 299.289 245.947 300.154 245.412 301.267L245.862 301.483L246.313 301.7C246.778 300.733 247.397 300.024 248.163 299.547L247.899 299.123ZM245.862 301.483L245.413 301.265C244.865 302.39 244.604 303.745 244.604 305.31L245.104 305.31L245.604 305.31C245.604 303.852 245.848 302.656 246.312 301.702L245.862 301.483Z" fill="black"/>
<path d="M312.484 165.634V167.679L304.802 176.088C303.9 177.073 303.158 177.929 302.575 178.656C301.991 179.391 301.56 180.081 301.279 180.725C300.991 181.376 300.847 182.058 300.847 182.77C300.847 183.588 301.044 184.297 301.438 184.895C301.825 185.494 302.355 185.956 303.029 186.281C303.704 186.607 304.461 186.77 305.302 186.77C306.196 186.77 306.976 186.584 307.643 186.213C308.302 185.85 308.813 185.338 309.177 184.679C309.533 184.02 309.711 183.247 309.711 182.361H312.393C312.393 183.725 312.079 184.922 311.45 185.952C310.821 186.982 309.965 187.785 308.882 188.361C307.791 188.937 306.567 189.225 305.211 189.225C303.847 189.225 302.639 188.937 301.586 188.361C300.533 187.785 299.707 187.009 299.109 186.031C298.51 185.054 298.211 183.967 298.211 182.77C298.211 181.914 298.366 181.077 298.677 180.259C298.98 179.448 299.51 178.543 300.268 177.543C301.018 176.55 302.06 175.338 303.393 173.906L308.62 168.315V168.134H297.802V165.634H312.484ZM285.836 165.315C287.169 165.315 288.37 165.581 289.438 166.111C290.507 166.641 291.363 167.369 292.007 168.293C292.65 169.217 293.003 170.27 293.063 171.452H290.336C290.23 170.399 289.753 169.528 288.904 168.838C288.048 168.156 287.025 167.815 285.836 167.815C284.882 167.815 284.033 168.039 283.291 168.486C282.541 168.933 281.954 169.547 281.529 170.327C281.097 171.115 280.882 172.005 280.882 172.997C280.882 174.012 281.105 174.918 281.552 175.713C281.991 176.516 282.597 177.149 283.37 177.611C284.143 178.073 285.025 178.308 286.018 178.315C286.73 178.323 287.461 178.213 288.211 177.986C288.961 177.766 289.579 177.482 290.063 177.134L292.7 177.452L291.291 188.906H279.2V186.406H288.927L289.745 179.543H289.609C289.132 179.922 288.533 180.236 287.813 180.486C287.094 180.736 286.344 180.861 285.563 180.861C284.139 180.861 282.87 180.52 281.757 179.838C280.635 179.164 279.757 178.24 279.12 177.065C278.476 175.891 278.154 174.55 278.154 173.043C278.154 171.558 278.488 170.232 279.154 169.065C279.813 167.906 280.722 166.99 281.882 166.315C283.041 165.649 284.359 165.315 285.836 165.315Z" fill="white"/>
</svg>
